<svg xmlns="http://www.w3.org/2000/svg" width="124.985" height="264.688" version="1.0"><g fill-rule="evenodd"><path d="M118.667 8.281c.381 23.332-.31 46.413-20.5 68.344l-.75.844h1.125l8.25.125c-13.406 27.886-22.128 55.693-41.406 83.469l-.688 1 1.188-.22 10.187-1.937c-7.217 18.31-19.557 30.433-32.937 34.5-3.683-51.568 22.052-97.087 43.906-142.469l.062-.124-.812-.563c-35.786 40.014-51.911 96.449-58 143-12.129-6.847-16.17-15.913-20.281-28.25l8.468 3.563.875.375-.187-.938c-6.436-28.62 3.556-49.162 13.25-76.156l6.969 4.656.812.563-.031-.97c-.546-21.93 14.22-43.947 33.812-63.593l2.72 7.281.374.969.531-.906 5.97-9.938.03-.062c9.852-13.57 20.268-17.987 37.063-22.563z" fill="#c3b15f"/><path d="M118.717 8.268c-16.738 4.567-27.28 9.033-37.113 22.576l-.03.062-5.97 9.938-.53.906-.376-.969L71.98 33.5C52.388 53.146 37.621 75.163 38.167 97.094l.031.969-.812-.563-6.97-4.656C20.724 119.838 10.732 140.38 17.167 169l.188.938-.875-.375-8.375-3.532c.027.172.066.33.094.5 4.05 12.058 8.146 20.974 20.094 27.719.472-3.606.997-7.288 1.594-11-14.59-34.164-1.926-59.281 3.843-81.875l8.875 5.125C41.378 85.345 53.8 62.53 69.948 42.625l4.688 8.25c12.008-24.7 21.506-34.616 44.08-42.607z" fill="#eff1cb" stroke="#eff1cb"/><path d="M124.104 0l-.53.094C103.888 3.527 84.617 10.76 76.166 28.062l-3.563-6.218-.312-.563-.469.469c-9.694 9.276-20.1 21.29-27.781 33.094-7.21 11.08-11.992 21.923-11.469 30.218l-5.031-6.28-.5-.626-.344.719c-6.124 13.229-12.304 29.504-16 44.438-3.504 14.158-4.759 27.047-1.5 35.156l-8.281-4.813-.688-.406-.062.813c-1.56 23.617 8.038 34.893 19.062 45.78l-9.187 2.282-1.844.469 1.844.5c5.274 1.43 10.275 3.038 13.75 5.719 3.475 2.68 5.47 6.365 4.875 12.25v25.687l.094.125 11.5 16.5.906 1.313v-40.469c1.522-6.544 3.308-11.048 5.875-14.031 2.567-2.984 5.907-4.516 10.687-5.094l1.72-.219-1.563-.719-6.063-2.875c14.456-8.703 30.645-30.04 34.906-50.312l.188-.813-.781.219-7.5 2.031c6.663-6.256 13.375-18.651 19.75-33.094 6.76-15.317 13.073-32.664 18.25-46.53l.28-.75-.78.062-5.782.406c7.147-7.586 11.12-20.113 13.063-33.344 2.022-13.77 1.88-28.27.75-38.625L124.104 0zm-5.437 8.281c.382 23.332-.31 46.413-20.5 68.344l-.75.844h1.125l8.25.125c-13.406 27.886-22.128 55.693-41.406 83.469l-.688 1 1.188-.22 10.187-1.937c-7.217 18.31-19.557 30.433-32.937 34.5-3.683-51.568 22.052-97.087 43.906-142.469l.062-.124-.812-.563c-35.786 40.014-51.911 96.449-58 143-12.129-6.847-16.17-15.913-20.281-28.25l8.468 3.563.875.375-.187-.938c-6.436-28.62 3.556-49.162 13.25-76.156l6.969 4.656.812.563-.031-.97c-.546-21.93 14.22-43.947 33.812-63.593l2.72 7.281.374.969.531-.906 5.97-9.938.03-.062c9.852-13.57 20.268-17.987 37.063-22.563z"/></g></svg>